<mxfile host="Electron" modified="2023-10-05T23:59:17.698Z" agent="Mozilla/5.0 (Windows NT 10.0; Win64; x64) AppleWebKit/537.36 (KHTML, like Gecko) draw.io/21.7.5 Chrome/114.0.5735.289 Electron/25.8.1 Safari/537.36" version="21.7.5" etag="O96tYCngqQa_l0-seheA" type="device">
  <diagram id="R2lEEEUBdFMjLlhIrx00" name="Page-1">
    <mxGraphModel dx="934" dy="620" grid="1" gridSize="10" guides="1" tooltips="1" connect="1" arrows="0" fold="1" page="1" pageScale="1" pageWidth="1169" pageHeight="827" background="none" math="0" shadow="0" extFonts="Permanent Marker^https://fonts.googleapis.com/css?family=Permanent+Marker">
      <root>
        <object label="" id="0">
          <mxCell />
        </object>
        <mxCell id="1" parent="0" />
        <mxCell id="-N6aTKsf7TU79jUoc55K-59" value="&lt;b style=&quot;font-size: 12px;&quot;&gt;users&lt;/b&gt;" style="shape=table;startSize=30;container=1;collapsible=1;childLayout=tableLayout;fixedRows=1;rowLines=0;fontStyle=0;align=center;resizeLast=1;fontSize=12;fontFamily=Inter;html=1;whiteSpace=wrap;labelBorderColor=none;labelBackgroundColor=none;shadow=0;spacing=2;swimlaneFillColor=none;rounded=1;swimlaneLine=1;fillColor=none;strokeColor=default;fontSource=https%3A%2F%2Ffonts.googleapis.com%2Fcss%3Ffamily%3DInter;" parent="1" vertex="1">
          <mxGeometry x="170" y="330" width="360" height="90" as="geometry" />
        </mxCell>
        <mxCell id="-N6aTKsf7TU79jUoc55K-60" value="" style="shape=tableRow;horizontal=0;startSize=0;swimlaneHead=0;swimlaneBody=0;fillColor=none;collapsible=0;dropTarget=0;points=[[0,0.5],[1,0.5]];portConstraint=eastwest;top=0;left=0;right=0;bottom=1;fontSize=12;fontFamily=Inter;html=1;whiteSpace=wrap;labelBorderColor=none;labelBackgroundColor=none;swimlaneFillColor=default;shadow=0;swimlaneLine=1;rounded=1;strokeColor=default;fontSource=https%3A%2F%2Ffonts.googleapis.com%2Fcss%3Ffamily%3DInter;" parent="-N6aTKsf7TU79jUoc55K-59" vertex="1">
          <mxGeometry y="30" width="360" height="30" as="geometry" />
        </mxCell>
        <mxCell id="-N6aTKsf7TU79jUoc55K-61" value="PK" style="shape=partialRectangle;connectable=0;fillColor=none;top=0;left=0;bottom=0;right=0;fontStyle=1;overflow=hidden;fontSize=12;fontFamily=Inter;html=1;whiteSpace=wrap;labelBorderColor=none;labelBackgroundColor=none;swimlaneFillColor=default;shadow=0;swimlaneLine=1;rounded=1;strokeColor=default;fontSource=https%3A%2F%2Ffonts.googleapis.com%2Fcss%3Ffamily%3DInter;" parent="-N6aTKsf7TU79jUoc55K-60" vertex="1">
          <mxGeometry width="40.000000000000455" height="30" as="geometry">
            <mxRectangle width="40.000000000000455" height="30" as="alternateBounds" />
          </mxGeometry>
        </mxCell>
        <mxCell id="-N6aTKsf7TU79jUoc55K-62" value="id" style="shape=partialRectangle;connectable=0;fillColor=none;top=0;left=0;bottom=0;right=0;align=left;spacingLeft=6;fontStyle=5;overflow=hidden;fontSize=12;fontFamily=Inter;html=1;whiteSpace=wrap;labelBorderColor=none;labelBackgroundColor=none;swimlaneFillColor=default;shadow=0;swimlaneLine=1;rounded=1;strokeColor=default;fontSource=https%3A%2F%2Ffonts.googleapis.com%2Fcss%3Ffamily%3DInter;" parent="-N6aTKsf7TU79jUoc55K-60" vertex="1">
          <mxGeometry x="40.000000000000455" width="159.99999999999955" height="30" as="geometry">
            <mxRectangle width="159.99999999999955" height="30" as="alternateBounds" />
          </mxGeometry>
        </mxCell>
        <mxCell id="-N6aTKsf7TU79jUoc55K-72" value="UUid:I:U" style="shape=partialRectangle;connectable=0;fillColor=none;top=0;left=0;bottom=0;right=0;align=left;spacingLeft=6;fontStyle=5;overflow=hidden;fontSize=12;fontFamily=Inter;html=1;whiteSpace=wrap;labelBorderColor=none;labelBackgroundColor=none;swimlaneFillColor=default;shadow=0;swimlaneLine=1;rounded=1;strokeColor=default;fontSource=https%3A%2F%2Ffonts.googleapis.com%2Fcss%3Ffamily%3DInter;" parent="-N6aTKsf7TU79jUoc55K-60" vertex="1">
          <mxGeometry x="200" width="160" height="30" as="geometry">
            <mxRectangle width="160" height="30" as="alternateBounds" />
          </mxGeometry>
        </mxCell>
        <mxCell id="z0eI3RnYBb72ceIuaX6i-19" style="shape=tableRow;horizontal=0;startSize=0;swimlaneHead=0;swimlaneBody=0;fillColor=none;collapsible=0;dropTarget=0;points=[[0,0.5],[1,0.5]];portConstraint=eastwest;top=0;left=0;right=0;bottom=0;fontSize=12;fontFamily=Inter;html=1;whiteSpace=wrap;labelBorderColor=none;labelBackgroundColor=none;swimlaneFillColor=default;shadow=0;swimlaneLine=1;rounded=1;strokeColor=default;fontSource=https%3A%2F%2Ffonts.googleapis.com%2Fcss%3Ffamily%3DInter;" parent="-N6aTKsf7TU79jUoc55K-59" vertex="1">
          <mxGeometry y="60" width="360" height="30" as="geometry" />
        </mxCell>
        <mxCell id="z0eI3RnYBb72ceIuaX6i-20" style="shape=partialRectangle;connectable=0;fillColor=none;top=0;left=0;bottom=0;right=0;editable=1;overflow=hidden;fontSize=12;fontFamily=Inter;html=1;whiteSpace=wrap;labelBorderColor=none;labelBackgroundColor=none;swimlaneFillColor=default;shadow=0;swimlaneLine=1;rounded=1;strokeColor=default;fontSource=https%3A%2F%2Ffonts.googleapis.com%2Fcss%3Ffamily%3DInter;" parent="z0eI3RnYBb72ceIuaX6i-19" vertex="1">
          <mxGeometry width="40.000000000000455" height="30" as="geometry">
            <mxRectangle width="40.000000000000455" height="30" as="alternateBounds" />
          </mxGeometry>
        </mxCell>
        <mxCell id="z0eI3RnYBb72ceIuaX6i-21" value="default_workspace_id" style="shape=partialRectangle;connectable=0;fillColor=none;top=0;left=0;bottom=0;right=0;align=left;spacingLeft=6;overflow=hidden;fontSize=12;fontFamily=Inter;html=1;whiteSpace=wrap;labelBorderColor=none;labelBackgroundColor=none;swimlaneFillColor=default;shadow=0;swimlaneLine=1;rounded=1;strokeColor=default;fontSource=https%3A%2F%2Ffonts.googleapis.com%2Fcss%3Ffamily%3DInter;" parent="z0eI3RnYBb72ceIuaX6i-19" vertex="1">
          <mxGeometry x="40.000000000000455" width="159.99999999999955" height="30" as="geometry">
            <mxRectangle width="159.99999999999955" height="30" as="alternateBounds" />
          </mxGeometry>
        </mxCell>
        <mxCell id="z0eI3RnYBb72ceIuaX6i-22" value="UUid" style="shape=partialRectangle;connectable=0;fillColor=none;top=0;left=0;bottom=0;right=0;align=left;spacingLeft=6;overflow=hidden;fontSize=12;fontFamily=Inter;html=1;whiteSpace=wrap;labelBorderColor=none;labelBackgroundColor=none;swimlaneFillColor=default;shadow=0;swimlaneLine=1;rounded=1;strokeColor=default;fontSource=https%3A%2F%2Ffonts.googleapis.com%2Fcss%3Ffamily%3DInter;" parent="z0eI3RnYBb72ceIuaX6i-19" vertex="1">
          <mxGeometry x="200" width="160" height="30" as="geometry">
            <mxRectangle width="160" height="30" as="alternateBounds" />
          </mxGeometry>
        </mxCell>
        <mxCell id="51jH7o4jqNyW6PgkhC1y-57" value="&lt;b&gt;chats&lt;/b&gt;" style="shape=table;startSize=30;container=1;collapsible=1;childLayout=tableLayout;fixedRows=1;rowLines=0;fontStyle=0;align=center;resizeLast=1;fontSize=12;fontFamily=Inter;html=1;whiteSpace=wrap;labelBorderColor=none;labelBackgroundColor=none;shadow=0;spacing=2;swimlaneFillColor=none;rounded=1;swimlaneLine=1;fillColor=none;strokeColor=default;fontSource=https%3A%2F%2Ffonts.googleapis.com%2Fcss%3Ffamily%3DInter;" parent="1" vertex="1">
          <mxGeometry x="170" y="180" width="360" height="120" as="geometry" />
        </mxCell>
        <mxCell id="51jH7o4jqNyW6PgkhC1y-58" value="" style="shape=tableRow;horizontal=0;startSize=0;swimlaneHead=0;swimlaneBody=0;fillColor=none;collapsible=0;dropTarget=0;points=[[0,0.5],[1,0.5]];portConstraint=eastwest;top=0;left=0;right=0;bottom=1;fontSize=12;fontFamily=Inter;html=1;whiteSpace=wrap;labelBorderColor=none;labelBackgroundColor=none;swimlaneFillColor=default;shadow=0;swimlaneLine=1;rounded=1;strokeColor=default;fontSource=https%3A%2F%2Ffonts.googleapis.com%2Fcss%3Ffamily%3DInter;" parent="51jH7o4jqNyW6PgkhC1y-57" vertex="1">
          <mxGeometry y="30" width="360" height="30" as="geometry" />
        </mxCell>
        <mxCell id="51jH7o4jqNyW6PgkhC1y-59" value="PK" style="shape=partialRectangle;connectable=0;fillColor=none;top=0;left=0;bottom=0;right=0;fontStyle=1;overflow=hidden;fontSize=12;fontFamily=Inter;html=1;whiteSpace=wrap;labelBorderColor=none;labelBackgroundColor=none;swimlaneFillColor=default;shadow=0;swimlaneLine=1;rounded=1;strokeColor=default;fontSource=https%3A%2F%2Ffonts.googleapis.com%2Fcss%3Ffamily%3DInter;" parent="51jH7o4jqNyW6PgkhC1y-58" vertex="1">
          <mxGeometry width="30" height="30" as="geometry">
            <mxRectangle width="30" height="30" as="alternateBounds" />
          </mxGeometry>
        </mxCell>
        <mxCell id="51jH7o4jqNyW6PgkhC1y-60" value="id" style="shape=partialRectangle;connectable=0;fillColor=none;top=0;left=0;bottom=0;right=0;align=left;spacingLeft=6;fontStyle=5;overflow=hidden;fontSize=12;fontFamily=Inter;html=1;whiteSpace=wrap;labelBorderColor=none;labelBackgroundColor=none;swimlaneFillColor=default;shadow=0;swimlaneLine=1;rounded=1;strokeColor=default;fontSource=https%3A%2F%2Ffonts.googleapis.com%2Fcss%3Ffamily%3DInter;" parent="51jH7o4jqNyW6PgkhC1y-58" vertex="1">
          <mxGeometry x="30" width="140" height="30" as="geometry">
            <mxRectangle width="140" height="30" as="alternateBounds" />
          </mxGeometry>
        </mxCell>
        <mxCell id="51jH7o4jqNyW6PgkhC1y-61" value="UUid:I:U" style="shape=partialRectangle;connectable=0;fillColor=none;top=0;left=0;bottom=0;right=0;align=left;spacingLeft=6;fontStyle=5;overflow=hidden;fontSize=12;fontFamily=Inter;html=1;whiteSpace=wrap;labelBorderColor=none;labelBackgroundColor=none;swimlaneFillColor=default;shadow=0;swimlaneLine=1;rounded=1;strokeColor=default;fontSource=https%3A%2F%2Ffonts.googleapis.com%2Fcss%3Ffamily%3DInter;" parent="51jH7o4jqNyW6PgkhC1y-58" vertex="1">
          <mxGeometry x="170" width="190" height="30" as="geometry">
            <mxRectangle width="190" height="30" as="alternateBounds" />
          </mxGeometry>
        </mxCell>
        <mxCell id="51jH7o4jqNyW6PgkhC1y-62" value="" style="shape=tableRow;horizontal=0;startSize=0;swimlaneHead=0;swimlaneBody=0;fillColor=none;collapsible=0;dropTarget=0;points=[[0,0.5],[1,0.5]];portConstraint=eastwest;top=0;left=0;right=0;bottom=0;fontSize=12;fontFamily=Inter;html=1;whiteSpace=wrap;labelBorderColor=none;labelBackgroundColor=none;swimlaneFillColor=default;shadow=0;swimlaneLine=1;rounded=1;strokeColor=default;fontSource=https%3A%2F%2Ffonts.googleapis.com%2Fcss%3Ffamily%3DInter;" parent="51jH7o4jqNyW6PgkhC1y-57" vertex="1">
          <mxGeometry y="60" width="360" height="30" as="geometry" />
        </mxCell>
        <mxCell id="51jH7o4jqNyW6PgkhC1y-63" value="FK" style="shape=partialRectangle;connectable=0;fillColor=none;top=0;left=0;bottom=0;right=0;editable=1;overflow=hidden;fontSize=12;fontFamily=Inter;html=1;whiteSpace=wrap;labelBorderColor=none;labelBackgroundColor=none;swimlaneFillColor=default;shadow=0;swimlaneLine=1;rounded=1;strokeColor=default;fontSource=https%3A%2F%2Ffonts.googleapis.com%2Fcss%3Ffamily%3DInter;" parent="51jH7o4jqNyW6PgkhC1y-62" vertex="1">
          <mxGeometry width="30" height="30" as="geometry">
            <mxRectangle width="30" height="30" as="alternateBounds" />
          </mxGeometry>
        </mxCell>
        <mxCell id="51jH7o4jqNyW6PgkhC1y-64" value="user_id" style="shape=partialRectangle;connectable=0;fillColor=none;top=0;left=0;bottom=0;right=0;align=left;spacingLeft=6;overflow=hidden;fontSize=12;fontFamily=Inter;html=1;whiteSpace=wrap;labelBorderColor=none;labelBackgroundColor=none;swimlaneFillColor=default;shadow=0;swimlaneLine=1;rounded=1;strokeColor=default;fontSource=https%3A%2F%2Ffonts.googleapis.com%2Fcss%3Ffamily%3DInter;" parent="51jH7o4jqNyW6PgkhC1y-62" vertex="1">
          <mxGeometry x="30" width="140" height="30" as="geometry">
            <mxRectangle width="140" height="30" as="alternateBounds" />
          </mxGeometry>
        </mxCell>
        <mxCell id="51jH7o4jqNyW6PgkhC1y-65" value="UUid" style="shape=partialRectangle;connectable=0;fillColor=none;top=0;left=0;bottom=0;right=0;align=left;spacingLeft=6;overflow=hidden;fontSize=12;fontFamily=Inter;html=1;whiteSpace=wrap;labelBorderColor=none;labelBackgroundColor=none;swimlaneFillColor=default;shadow=0;swimlaneLine=1;rounded=1;strokeColor=default;fontSource=https%3A%2F%2Ffonts.googleapis.com%2Fcss%3Ffamily%3DInter;" parent="51jH7o4jqNyW6PgkhC1y-62" vertex="1">
          <mxGeometry x="170" width="190" height="30" as="geometry">
            <mxRectangle width="190" height="30" as="alternateBounds" />
          </mxGeometry>
        </mxCell>
        <mxCell id="51jH7o4jqNyW6PgkhC1y-66" value="" style="shape=tableRow;horizontal=0;startSize=0;swimlaneHead=0;swimlaneBody=0;fillColor=none;collapsible=0;dropTarget=0;points=[[0,0.5],[1,0.5]];portConstraint=eastwest;top=0;left=0;right=0;bottom=0;fontSize=12;fontFamily=Inter;html=1;whiteSpace=wrap;labelBorderColor=none;labelBackgroundColor=none;swimlaneFillColor=default;shadow=0;swimlaneLine=1;rounded=1;strokeColor=default;fontSource=https%3A%2F%2Ffonts.googleapis.com%2Fcss%3Ffamily%3DInter;" parent="51jH7o4jqNyW6PgkhC1y-57" vertex="1">
          <mxGeometry y="90" width="360" height="30" as="geometry" />
        </mxCell>
        <mxCell id="51jH7o4jqNyW6PgkhC1y-67" value="FK" style="shape=partialRectangle;connectable=0;fillColor=none;top=0;left=0;bottom=0;right=0;editable=1;overflow=hidden;fontSize=12;fontFamily=Inter;html=1;whiteSpace=wrap;labelBorderColor=none;labelBackgroundColor=none;swimlaneFillColor=default;shadow=0;swimlaneLine=1;rounded=1;strokeColor=default;fontSource=https%3A%2F%2Ffonts.googleapis.com%2Fcss%3Ffamily%3DInter;" parent="51jH7o4jqNyW6PgkhC1y-66" vertex="1">
          <mxGeometry width="30" height="30" as="geometry">
            <mxRectangle width="30" height="30" as="alternateBounds" />
          </mxGeometry>
        </mxCell>
        <mxCell id="51jH7o4jqNyW6PgkhC1y-68" value="workspace_id" style="shape=partialRectangle;connectable=0;fillColor=none;top=0;left=0;bottom=0;right=0;align=left;spacingLeft=6;overflow=hidden;fontSize=12;fontFamily=Inter;html=1;whiteSpace=wrap;labelBorderColor=none;labelBackgroundColor=none;swimlaneFillColor=default;shadow=0;swimlaneLine=1;rounded=1;strokeColor=default;fontSource=https%3A%2F%2Ffonts.googleapis.com%2Fcss%3Ffamily%3DInter;" parent="51jH7o4jqNyW6PgkhC1y-66" vertex="1">
          <mxGeometry x="30" width="140" height="30" as="geometry">
            <mxRectangle width="140" height="30" as="alternateBounds" />
          </mxGeometry>
        </mxCell>
        <mxCell id="51jH7o4jqNyW6PgkhC1y-69" value="UUid" style="shape=partialRectangle;connectable=0;fillColor=none;top=0;left=0;bottom=0;right=0;align=left;spacingLeft=6;overflow=hidden;fontSize=12;fontFamily=Inter;html=1;whiteSpace=wrap;labelBorderColor=none;labelBackgroundColor=none;swimlaneFillColor=default;shadow=0;swimlaneLine=1;rounded=1;strokeColor=default;fontSource=https%3A%2F%2Ffonts.googleapis.com%2Fcss%3Ffamily%3DInter;" parent="51jH7o4jqNyW6PgkhC1y-66" vertex="1">
          <mxGeometry x="170" width="190" height="30" as="geometry">
            <mxRectangle width="190" height="30" as="alternateBounds" />
          </mxGeometry>
        </mxCell>
        <mxCell id="fr_swlEQUAIcq_gQDYVF-21" style="edgeStyle=elbowEdgeStyle;rounded=1;orthogonalLoop=1;jettySize=auto;html=1;exitX=0;exitY=0.5;exitDx=0;exitDy=0;entryX=0;entryY=0.5;entryDx=0;entryDy=0;fontSize=12;startSize=8;endSize=8;elbow=vertical;endArrow=ERoneToMany;endFill=0;startArrow=ERmandOne;startFill=0;" parent="1" source="-N6aTKsf7TU79jUoc55K-60" target="51jH7o4jqNyW6PgkhC1y-62" edge="1">
          <mxGeometry relative="1" as="geometry">
            <Array as="points">
              <mxPoint x="130" y="340" />
            </Array>
          </mxGeometry>
        </mxCell>
        <mxCell id="2" value="&lt;b&gt;*&lt;/b&gt;&lt;b style=&quot;border-color: var(--border-color);&quot;&gt;audit columns&lt;/b&gt;&lt;b&gt;*&lt;/b&gt;" style="shape=table;startSize=30;container=1;collapsible=1;childLayout=tableLayout;fixedRows=1;rowLines=0;fontStyle=0;align=center;resizeLast=1;fontSize=12;fontFamily=Inter;html=1;whiteSpace=wrap;labelBorderColor=none;labelBackgroundColor=none;shadow=0;spacing=2;swimlaneFillColor=none;rounded=1;swimlaneLine=1;fillColor=none;strokeColor=default;fontSource=https%3A%2F%2Ffonts.googleapis.com%2Fcss%3Ffamily%3DInter;" parent="1" vertex="1">
          <mxGeometry x="600" y="20" width="360" height="180" as="geometry" />
        </mxCell>
        <mxCell id="3" value="" style="shape=tableRow;horizontal=0;startSize=0;swimlaneHead=0;swimlaneBody=0;fillColor=none;collapsible=0;dropTarget=0;points=[[0,0.5],[1,0.5]];portConstraint=eastwest;top=0;left=0;right=0;bottom=1;fontSize=12;fontFamily=Inter;html=1;whiteSpace=wrap;labelBorderColor=none;labelBackgroundColor=none;swimlaneFillColor=default;shadow=0;swimlaneLine=1;rounded=1;strokeColor=default;fontSource=https%3A%2F%2Ffonts.googleapis.com%2Fcss%3Ffamily%3DInter;" parent="2" vertex="1">
          <mxGeometry y="30" width="360" height="30" as="geometry" />
        </mxCell>
        <mxCell id="4" value="PK" style="shape=partialRectangle;connectable=0;fillColor=none;top=0;left=0;bottom=0;right=0;fontStyle=1;overflow=hidden;fontSize=12;fontFamily=Inter;html=1;whiteSpace=wrap;labelBorderColor=none;labelBackgroundColor=none;swimlaneFillColor=default;shadow=0;swimlaneLine=1;rounded=1;strokeColor=default;fontSource=https%3A%2F%2Ffonts.googleapis.com%2Fcss%3Ffamily%3DInter;" parent="3" vertex="1">
          <mxGeometry width="40.000000000000455" height="30" as="geometry">
            <mxRectangle width="40.000000000000455" height="30" as="alternateBounds" />
          </mxGeometry>
        </mxCell>
        <mxCell id="5" value="id" style="shape=partialRectangle;connectable=0;fillColor=none;top=0;left=0;bottom=0;right=0;align=left;spacingLeft=6;fontStyle=5;overflow=hidden;fontSize=12;fontFamily=Inter;html=1;whiteSpace=wrap;labelBorderColor=none;labelBackgroundColor=none;swimlaneFillColor=default;shadow=0;swimlaneLine=1;rounded=1;strokeColor=default;fontSource=https%3A%2F%2Ffonts.googleapis.com%2Fcss%3Ffamily%3DInter;" parent="3" vertex="1">
          <mxGeometry x="40.000000000000455" width="139.99999999999955" height="30" as="geometry">
            <mxRectangle width="139.99999999999955" height="30" as="alternateBounds" />
          </mxGeometry>
        </mxCell>
        <mxCell id="6" value="UUid:I:U" style="shape=partialRectangle;connectable=0;fillColor=none;top=0;left=0;bottom=0;right=0;align=left;spacingLeft=6;fontStyle=5;overflow=hidden;fontSize=12;fontFamily=Inter;html=1;whiteSpace=wrap;labelBorderColor=none;labelBackgroundColor=none;swimlaneFillColor=default;shadow=0;swimlaneLine=1;rounded=1;strokeColor=default;fontSource=https%3A%2F%2Ffonts.googleapis.com%2Fcss%3Ffamily%3DInter;" parent="3" vertex="1">
          <mxGeometry x="180" width="180" height="30" as="geometry">
            <mxRectangle width="180" height="30" as="alternateBounds" />
          </mxGeometry>
        </mxCell>
        <mxCell id="7" value="" style="shape=tableRow;horizontal=0;startSize=0;swimlaneHead=0;swimlaneBody=0;fillColor=none;collapsible=0;dropTarget=0;points=[[0,0.5],[1,0.5]];portConstraint=eastwest;top=0;left=0;right=0;bottom=0;fontSize=12;fontFamily=Inter;html=1;whiteSpace=wrap;labelBorderColor=none;labelBackgroundColor=none;swimlaneFillColor=default;shadow=0;swimlaneLine=1;rounded=1;strokeColor=default;fontSource=https%3A%2F%2Ffonts.googleapis.com%2Fcss%3Ffamily%3DInter;" parent="2" vertex="1">
          <mxGeometry y="60" width="360" height="30" as="geometry" />
        </mxCell>
        <mxCell id="8" value="" style="shape=partialRectangle;connectable=0;fillColor=none;top=0;left=0;bottom=0;right=0;editable=1;overflow=hidden;fontSize=12;fontFamily=Inter;html=1;whiteSpace=wrap;labelBorderColor=none;labelBackgroundColor=none;swimlaneFillColor=default;shadow=0;swimlaneLine=1;rounded=1;strokeColor=default;fontSource=https%3A%2F%2Ffonts.googleapis.com%2Fcss%3Ffamily%3DInter;" parent="7" vertex="1">
          <mxGeometry width="40.000000000000455" height="30" as="geometry">
            <mxRectangle width="40.000000000000455" height="30" as="alternateBounds" />
          </mxGeometry>
        </mxCell>
        <mxCell id="9" value="created_at" style="shape=partialRectangle;connectable=0;fillColor=none;top=0;left=0;bottom=0;right=0;align=left;spacingLeft=6;overflow=hidden;fontSize=12;fontFamily=Inter;html=1;whiteSpace=wrap;labelBorderColor=none;labelBackgroundColor=none;swimlaneFillColor=default;shadow=0;swimlaneLine=1;rounded=1;strokeColor=default;fontSource=https%3A%2F%2Ffonts.googleapis.com%2Fcss%3Ffamily%3DInter;" parent="7" vertex="1">
          <mxGeometry x="40.000000000000455" width="139.99999999999955" height="30" as="geometry">
            <mxRectangle width="139.99999999999955" height="30" as="alternateBounds" />
          </mxGeometry>
        </mxCell>
        <mxCell id="10" value="Timestamp With Time Zone" style="shape=partialRectangle;connectable=0;fillColor=none;top=0;left=0;bottom=0;right=0;align=left;spacingLeft=6;overflow=hidden;fontSize=12;fontFamily=Inter;html=1;whiteSpace=wrap;labelBorderColor=none;labelBackgroundColor=none;swimlaneFillColor=default;shadow=0;swimlaneLine=1;rounded=1;strokeColor=default;fontSource=https%3A%2F%2Ffonts.googleapis.com%2Fcss%3Ffamily%3DInter;" parent="7" vertex="1">
          <mxGeometry x="180" width="180" height="30" as="geometry">
            <mxRectangle width="180" height="30" as="alternateBounds" />
          </mxGeometry>
        </mxCell>
        <mxCell id="11" value="" style="shape=tableRow;horizontal=0;startSize=0;swimlaneHead=0;swimlaneBody=0;fillColor=none;collapsible=0;dropTarget=0;points=[[0,0.5],[1,0.5]];portConstraint=eastwest;top=0;left=0;right=0;bottom=0;fontSize=12;fontFamily=Inter;html=1;whiteSpace=wrap;labelBorderColor=none;labelBackgroundColor=none;swimlaneFillColor=default;shadow=0;swimlaneLine=1;rounded=1;strokeColor=default;fontSource=https%3A%2F%2Ffonts.googleapis.com%2Fcss%3Ffamily%3DInter;" parent="2" vertex="1">
          <mxGeometry y="90" width="360" height="30" as="geometry" />
        </mxCell>
        <mxCell id="12" value="" style="shape=partialRectangle;connectable=0;fillColor=none;top=0;left=0;bottom=0;right=0;editable=1;overflow=hidden;fontSize=12;fontFamily=Inter;html=1;whiteSpace=wrap;labelBorderColor=none;labelBackgroundColor=none;swimlaneFillColor=default;shadow=0;swimlaneLine=1;perimeterSpacing=0;rounded=1;strokeColor=default;fontSource=https%3A%2F%2Ffonts.googleapis.com%2Fcss%3Ffamily%3DInter;" parent="11" vertex="1">
          <mxGeometry width="40.000000000000455" height="30" as="geometry">
            <mxRectangle width="40.000000000000455" height="30" as="alternateBounds" />
          </mxGeometry>
        </mxCell>
        <mxCell id="13" value="updated_at" style="shape=partialRectangle;connectable=0;fillColor=none;top=0;left=0;bottom=0;right=0;align=left;spacingLeft=6;overflow=hidden;fontSize=12;fontFamily=Inter;html=1;whiteSpace=wrap;labelBorderColor=none;labelBackgroundColor=none;swimlaneFillColor=default;shadow=0;swimlaneLine=1;perimeterSpacing=0;rounded=1;strokeColor=default;fontSource=https%3A%2F%2Ffonts.googleapis.com%2Fcss%3Ffamily%3DInter;" parent="11" vertex="1">
          <mxGeometry x="40.000000000000455" width="139.99999999999955" height="30" as="geometry">
            <mxRectangle width="139.99999999999955" height="30" as="alternateBounds" />
          </mxGeometry>
        </mxCell>
        <mxCell id="14" value="Timestamp With Time Zone:N" style="shape=partialRectangle;connectable=0;fillColor=none;top=0;left=0;bottom=0;right=0;align=left;spacingLeft=6;overflow=hidden;fontSize=12;fontFamily=Inter;html=1;whiteSpace=wrap;labelBorderColor=none;labelBackgroundColor=none;swimlaneFillColor=default;shadow=0;swimlaneLine=1;perimeterSpacing=0;rounded=1;strokeColor=default;fontSource=https%3A%2F%2Ffonts.googleapis.com%2Fcss%3Ffamily%3DInter;" parent="11" vertex="1">
          <mxGeometry x="180" width="180" height="30" as="geometry">
            <mxRectangle width="180" height="30" as="alternateBounds" />
          </mxGeometry>
        </mxCell>
        <mxCell id="15" style="shape=tableRow;horizontal=0;startSize=0;swimlaneHead=0;swimlaneBody=0;fillColor=none;collapsible=0;dropTarget=0;points=[[0,0.5],[1,0.5]];portConstraint=eastwest;top=0;left=0;right=0;bottom=0;fontSize=12;fontFamily=Inter;html=1;whiteSpace=wrap;labelBorderColor=none;labelBackgroundColor=none;swimlaneFillColor=default;shadow=0;swimlaneLine=1;rounded=1;strokeColor=default;fontSource=https%3A%2F%2Ffonts.googleapis.com%2Fcss%3Ffamily%3DInter;" parent="2" vertex="1">
          <mxGeometry y="120" width="360" height="30" as="geometry" />
        </mxCell>
        <mxCell id="16" style="shape=partialRectangle;connectable=0;fillColor=none;top=0;left=0;bottom=0;right=0;editable=1;overflow=hidden;fontSize=12;fontFamily=Inter;html=1;whiteSpace=wrap;labelBorderColor=none;labelBackgroundColor=none;swimlaneFillColor=default;shadow=0;swimlaneLine=1;perimeterSpacing=0;rounded=1;strokeColor=default;fontSource=https%3A%2F%2Ffonts.googleapis.com%2Fcss%3Ffamily%3DInter;" parent="15" vertex="1">
          <mxGeometry width="40.000000000000455" height="30" as="geometry">
            <mxRectangle width="40.000000000000455" height="30" as="alternateBounds" />
          </mxGeometry>
        </mxCell>
        <mxCell id="17" value="deleted_at" style="shape=partialRectangle;connectable=0;fillColor=none;top=0;left=0;bottom=0;right=0;align=left;spacingLeft=6;overflow=hidden;fontSize=12;fontFamily=Inter;html=1;whiteSpace=wrap;labelBorderColor=none;labelBackgroundColor=none;swimlaneFillColor=default;shadow=0;swimlaneLine=1;perimeterSpacing=0;rounded=1;strokeColor=default;fontSource=https%3A%2F%2Ffonts.googleapis.com%2Fcss%3Ffamily%3DInter;" parent="15" vertex="1">
          <mxGeometry x="40.000000000000455" width="139.99999999999955" height="30" as="geometry">
            <mxRectangle width="139.99999999999955" height="30" as="alternateBounds" />
          </mxGeometry>
        </mxCell>
        <mxCell id="18" value="Timestamp With Time Zone:N" style="shape=partialRectangle;connectable=0;fillColor=none;top=0;left=0;bottom=0;right=0;align=left;spacingLeft=6;overflow=hidden;fontSize=12;fontFamily=Inter;html=1;whiteSpace=wrap;labelBorderColor=none;labelBackgroundColor=none;swimlaneFillColor=default;shadow=0;swimlaneLine=1;perimeterSpacing=0;rounded=1;strokeColor=default;fontSource=https%3A%2F%2Ffonts.googleapis.com%2Fcss%3Ffamily%3DInter;" parent="15" vertex="1">
          <mxGeometry x="180" width="180" height="30" as="geometry">
            <mxRectangle width="180" height="30" as="alternateBounds" />
          </mxGeometry>
        </mxCell>
        <mxCell id="19" style="shape=tableRow;horizontal=0;startSize=0;swimlaneHead=0;swimlaneBody=0;fillColor=none;collapsible=0;dropTarget=0;points=[[0,0.5],[1,0.5]];portConstraint=eastwest;top=0;left=0;right=0;bottom=0;fontSize=12;fontFamily=Inter;html=1;whiteSpace=wrap;labelBorderColor=none;labelBackgroundColor=none;swimlaneFillColor=default;shadow=0;swimlaneLine=1;rounded=1;strokeColor=default;fontSource=https%3A%2F%2Ffonts.googleapis.com%2Fcss%3Ffamily%3DInter;" parent="2" vertex="1">
          <mxGeometry y="150" width="360" height="30" as="geometry" />
        </mxCell>
        <mxCell id="20" style="shape=partialRectangle;connectable=0;fillColor=none;top=0;left=0;bottom=0;right=0;editable=1;overflow=hidden;fontSize=12;fontFamily=Inter;html=1;whiteSpace=wrap;labelBorderColor=none;labelBackgroundColor=none;swimlaneFillColor=default;shadow=0;swimlaneLine=1;perimeterSpacing=0;rounded=1;strokeColor=default;fontSource=https%3A%2F%2Ffonts.googleapis.com%2Fcss%3Ffamily%3DInter;" parent="19" vertex="1">
          <mxGeometry width="40.000000000000455" height="30" as="geometry">
            <mxRectangle width="40.000000000000455" height="30" as="alternateBounds" />
          </mxGeometry>
        </mxCell>
        <mxCell id="21" value="version" style="shape=partialRectangle;connectable=0;fillColor=none;top=0;left=0;bottom=0;right=0;align=left;spacingLeft=6;overflow=hidden;fontSize=12;fontFamily=Inter;html=1;whiteSpace=wrap;labelBorderColor=none;labelBackgroundColor=none;swimlaneFillColor=default;shadow=0;swimlaneLine=1;perimeterSpacing=0;rounded=1;strokeColor=default;fontSource=https%3A%2F%2Ffonts.googleapis.com%2Fcss%3Ffamily%3DInter;" parent="19" vertex="1">
          <mxGeometry x="40.000000000000455" width="139.99999999999955" height="30" as="geometry">
            <mxRectangle width="139.99999999999955" height="30" as="alternateBounds" />
          </mxGeometry>
        </mxCell>
        <mxCell id="22" value="Integer" style="shape=partialRectangle;connectable=0;fillColor=none;top=0;left=0;bottom=0;right=0;align=left;spacingLeft=6;overflow=hidden;fontSize=12;fontFamily=Inter;html=1;whiteSpace=wrap;labelBorderColor=none;labelBackgroundColor=none;swimlaneFillColor=default;shadow=0;swimlaneLine=1;perimeterSpacing=0;rounded=1;strokeColor=default;fontSource=https%3A%2F%2Ffonts.googleapis.com%2Fcss%3Ffamily%3DInter;" parent="19" vertex="1">
          <mxGeometry x="180" width="180" height="30" as="geometry">
            <mxRectangle width="180" height="30" as="alternateBounds" />
          </mxGeometry>
        </mxCell>
      </root>
    </mxGraphModel>
  </diagram>
</mxfile>
